<svg width="16" height="20" viewBox="0.0002593994140625 0.0018310546875 15.999481201171875 19.996337890625" fill="none" xmlns="http://www.w3.org/2000/svg">
<path d="M13.751 11.9957C14.9932 11.9957 16 13.0025 16 14.2447V14.8201C16 15.7144 15.6804 16.5793 15.0989 17.2587C13.5294 19.0922 11.1422 19.9971 7.99675 19.9971C4.85075 19.9971 2.46466 19.0919 0.898309 17.2576C0.31852 16.5787 0 15.7151 0 14.8223V14.2447C0 13.0025 1.00688 11.9957 2.24894 11.9957H13.751ZM13.751 13.4958H2.24894C1.83534 13.4958 1.50005 13.8311 1.50005 14.2447V14.8223C1.50005 15.358 1.69116 15.8761 2.03903 16.2834C3.29238 17.7512 5.25832 18.497 7.99675 18.497C10.7351 18.497 12.7028 17.7512 13.9592 16.2832C14.3083 15.8755 14.5 15.3566 14.5 14.8201V14.2447C14.5 13.8311 14.1646 13.4958 13.751 13.4958ZM7.99675 0C10.7582 0 12.9969 2.23865 12.9969 5.00016C12.9969 7.76168 10.7582 10.0003 7.99675 10.0003C5.2352 10.0003 2.99655 7.76168 2.99655 5.00016C2.99655 2.23865 5.2352 0 7.99675 0ZM7.99675 1.50005C6.06369 1.50005 4.4966 3.06711 4.4966 5.00016C4.4966 6.93322 6.06369 8.5003 7.99675 8.5003C9.92981 8.5003 11.4969 6.93322 11.4969 5.00016C11.4969 3.06711 9.92981 1.50005 7.99675 1.50005Z" fill="#20276A"/>
</svg>
