<svg width="14" height="14" viewBox="0.333343505859375 0.3333740234375 13.33331298828125 13.333251953125" fill="none" xmlns="http://www.w3.org/2000/svg">
<path d="M1.05 7.00001C1.05 3.71391 3.71391 1.05 7.00001 1.05C10.2861 1.05 12.95 3.71391 12.95 7.00001C12.95 10.2861 10.2861 12.95 7.00001 12.95C3.71391 12.95 1.05 10.2861 1.05 7.00001ZM7.00001 0C3.13401 0 0 3.13401 0 7.00001C0 10.866 3.13401 14 7.00001 14C10.866 14 14 10.866 14 7.00001C14 3.13401 10.866 0 7.00001 0ZM6.99518 3.25379C6.96046 2.99764 6.74066 2.8 6.47501 2.8C6.18521 2.8 5.95001 3.0352 5.95001 3.325V7.52501L5.95484 7.5962C5.98956 7.8524 6.20936 8.05001 6.47501 8.05001H9.27501L9.3462 8.04518C9.6024 8.01046 9.80001 7.79066 9.80001 7.52501C9.80001 7.23521 9.56481 7.00001 9.27501 7.00001H7.00001V3.325L6.99518 3.25379Z" fill="#60490E"/>
</svg>
