<svg width="14" height="17" viewBox="0.25 0.25 13.5 16.5" fill="none" xmlns="http://www.w3.org/2000/svg">
<path d="M0 17V3.47727C0 3.16818 0.115909 2.89773 0.347727 2.66591C0.579545 2.43409 0.85 2.31818 1.15909 2.31818H10.4318C10.7409 2.31818 11.0146 2.43409 11.2528 2.66591C11.4911 2.89773 11.6102 3.16818 11.6102 3.47727V17L5.79545 14.5466L0 17ZM1.15909 15.242L5.79545 13.2523L10.4318 15.242V3.47727H1.15909V15.242ZM12.75 15.2614V1.15909H2.18295V0H12.75C13.0591 0 13.3295 0.115909 13.5614 0.347727C13.7932 0.579545 13.9091 0.85 13.9091 1.15909V15.2614H12.75Z" fill="#4B31EE"/>
</svg>
