<svg width="18" height="18" viewBox="0 0 18 18" fill="none" xmlns="http://www.w3.org/2000/svg">
<path d="M17.9989 1.7529C17.9989 0.345171 16.4212 -0.486344 15.2599 0.309353L4.76202 7.50239C3.7519 8.19445 3.74671 9.68337 4.75197 10.3825L15.2499 17.6837C16.4101 18.4907 17.9989 17.6603 17.9989 16.2471V1.7529ZM16.1077 1.54669C16.2736 1.43301 16.499 1.55181 16.499 1.7529V16.2471C16.499 16.449 16.272 16.5676 16.1063 16.4523L5.60839 9.1512C5.46477 9.05131 5.46551 8.83862 5.60983 8.73973L16.1077 1.54669ZM0 0.749959C0 0.335772 0.335772 0 0.749959 0C1.16415 0 1.49992 0.335772 1.49992 0.749959V17.2491C1.49992 17.6632 1.16415 17.999 0.749959 17.999C0.335772 17.999 0 17.6632 0 17.2491V0.749959Z" fill="#D9D9D9"/>
</svg>
