<svg width="16" height="18" viewBox="0 0 16 18" fill="none" xmlns="http://www.w3.org/2000/svg">
<path d="M5.04 1.28725V0H10.08V1.28725H5.04ZM6.93 10.8772H8.19V5.94279H6.93V10.8772ZM7.56 18C6.524 18 5.5475 17.7962 4.6305 17.3886C3.7135 16.9809 2.912 16.4267 2.226 15.7259C1.54 15.025 0.9975 14.2062 0.5985 13.2694C0.1995 12.3325 0 11.3349 0 10.2765C0 9.21812 0.1995 8.2205 0.5985 7.28367C0.9975 6.34684 1.54 5.52801 2.226 4.82718C2.912 4.12634 3.7135 3.57211 4.6305 3.16448C5.5475 2.75685 6.524 2.55304 7.56 2.55304C8.498 2.55304 9.38 2.71395 10.206 3.03576C11.032 3.35757 11.767 3.80453 12.411 4.37664L13.482 3.28248L14.364 4.18355L13.293 5.27771C13.797 5.84982 14.2275 6.5435 14.5845 7.35876C14.9415 8.17402 15.12 9.1466 15.12 10.2765C15.12 11.3349 14.9205 12.3325 14.5215 13.2694C14.1225 14.2062 13.58 15.025 12.894 15.7259C12.208 16.4267 11.4065 16.9809 10.4895 17.3886C9.5725 17.7962 8.596 18 7.56 18ZM7.56 16.7128C9.31 16.7128 10.7975 16.087 12.0225 14.8355C13.2475 13.584 13.86 12.0644 13.86 10.2765C13.86 8.48868 13.2475 6.96901 12.0225 5.71752C10.7975 4.46603 9.31 3.84029 7.56 3.84029C5.81 3.84029 4.3225 4.46603 3.0975 5.71752C1.8725 6.96901 1.26 8.48868 1.26 10.2765C1.26 12.0644 1.8725 13.584 3.0975 14.8355C4.3225 16.087 5.81 16.7128 7.56 16.7128Z" fill="#4B31EE"/>
</svg>
