<svg width="18" height="18" viewBox="0 0 18 18" fill="none" xmlns="http://www.w3.org/2000/svg">
<path d="M0 1.7529C0 0.345171 1.57772 -0.486344 2.73901 0.309353L13.2369 7.50239C14.247 8.19445 14.2522 9.68337 13.247 10.3825L2.74905 17.6837C1.58878 18.4907 0 17.6603 0 16.2471V1.7529ZM1.89121 1.54669C1.72531 1.43301 1.49992 1.55181 1.49992 1.7529V16.2471C1.49992 16.449 1.7269 16.5676 1.89265 16.4523L12.3905 9.1512C12.5341 9.05131 12.5334 8.83862 12.3891 8.73973L1.89121 1.54669ZM17.9989 0.749959C17.9989 0.335772 17.6631 0 17.2489 0C16.8348 0 16.499 0.335772 16.499 0.749959V17.2491C16.499 17.6632 16.8348 17.999 17.2489 17.999C17.6631 17.999 17.9989 17.6632 17.9989 17.2491V0.749959Z" fill="#D9D9D9"/>
</svg>
