<svg width="12" height="12" viewBox="0 0 12 12" fill="none" xmlns="http://www.w3.org/2000/svg">
<path d="M4.5 1C4.40795 1 4.33333 1.07462 4.33333 1.16667V3.83333C4.33333 4.10947 4.10947 4.33333 3.83333 4.33333H1.16667C1.07462 4.33333 1 4.40795 1 4.5V7.5C1 7.59207 1.07462 7.66667 1.16667 7.66667H3.83333C4.10947 7.66667 4.33333 7.89053 4.33333 8.16667V10.8333C4.33333 10.9254 4.40795 11 4.5 11H7.5C7.59207 11 7.66667 10.9254 7.66667 10.8333V8.16667C7.66667 7.89053 7.89053 7.66667 8.16667 7.66667H10.8333C10.9254 7.66667 11 7.59207 11 7.5V4.5C11 4.40795 10.9254 4.33333 10.8333 4.33333H8.16667C7.89053 4.33333 7.66667 4.10947 7.66667 3.83333V1.16667C7.66667 1.07462 7.59207 1 7.5 1H4.5ZM3.33333 1.16667C3.33333 0.522333 3.85567 0 4.5 0H7.5C8.14433 0 8.66667 0.522333 8.66667 1.16667V3.33333H10.8333C11.4777 3.33333 12 3.85567 12 4.5V7.5C12 8.14433 11.4777 8.66667 10.8333 8.66667H8.66667V10.8333C8.66667 11.4777 8.14433 12 7.5 12H4.5C3.85567 12 3.33333 11.4777 3.33333 10.8333V8.66667H1.16667C0.522333 8.66667 0 8.14433 0 7.5V4.5C0 3.85567 0.522333 3.33333 1.16667 3.33333H3.33333V1.16667Z" fill="#60490E"/>
</svg>
