<svg width="12" height="14" viewBox="0.19512939453125 0.339111328125 11.6097412109375 13.32177734375" fill="none" xmlns="http://www.w3.org/2000/svg">
<path d="M1.75736 1.75736C4.1005 -0.585786 7.89952 -0.585786 10.2427 1.75736C12.5858 4.1005 12.5858 7.89952 10.2427 10.2427L9.42472 11.0516C8.82185 11.6432 8.03967 12.4039 7.07779 13.3339C6.47678 13.915 5.52324 13.9149 4.92229 13.3337L2.51663 10.9937C2.21429 10.6968 1.96121 10.4465 1.75736 10.2427C-0.585786 7.89952 -0.585786 4.1005 1.75736 1.75736ZM9.51175 2.48823C7.57227 0.548737 4.42772 0.548737 2.48823 2.48823C0.548737 4.42772 0.548737 7.57227 2.48823 9.51175L3.51294 10.523C4.07723 11.0752 4.78661 11.7645 5.64086 12.5907C5.84118 12.7844 6.15898 12.7845 6.35936 12.5908L8.69871 10.3158C9.02182 9.99865 9.2929 9.7306 9.51175 9.51175C11.4512 7.57227 11.4512 4.42772 9.51175 2.48823ZM6.00001 4.12134C7.14229 4.12134 8.06827 5.04735 8.06827 6.18964C8.06827 7.33192 7.14229 8.25791 6.00001 8.25791C4.85773 8.25791 3.9317 7.33192 3.9317 6.18964C3.9317 5.04735 4.85773 4.12134 6.00001 4.12134ZM6.00001 5.15495C5.42856 5.15495 4.96529 5.61819 4.96529 6.18964C4.96529 6.76109 5.42856 7.22429 6.00001 7.22429C6.57146 7.22429 7.03466 6.76109 7.03466 6.18964C7.03466 5.61819 6.57146 5.15495 6.00001 5.15495Z" fill="#20276A"/>
</svg>
