<svg width="14" height="14" viewBox="0.333343505859375 0.33331298828125 13.33331298828125 13.3333740234375" fill="none" xmlns="http://www.w3.org/2000/svg">
<path d="M1.05 6.99998C1.05 3.71389 3.71389 1.05 6.99998 1.05C10.286 1.05 12.95 3.71389 12.95 6.99998C12.95 10.286 10.286 12.95 6.99998 12.95C3.71389 12.95 1.05 10.286 1.05 6.99998ZM6.99998 0C3.134 0 0 3.134 0 6.99998C0 10.8659 3.134 14 6.99998 14C10.8659 14 14 10.8659 14 6.99998C14 3.134 10.8659 0 6.99998 0ZM6.99515 3.25378C6.96043 2.99762 6.74063 2.79999 6.47498 2.79999C6.18518 2.79999 5.94998 3.03519 5.94998 3.32499V7.52498L5.95481 7.59617C5.98953 7.85237 6.20933 8.04997 6.47498 8.04997H9.27497L9.34616 8.04515C9.60236 8.01043 9.79997 7.79063 9.79997 7.52498C9.79997 7.23518 9.56477 6.99998 9.27497 6.99998H6.99998V3.32499L6.99515 3.25378Z" fill="#60490E"/>
</svg>
