<svg width="27" height="25" viewBox="0 0 27 25" fill="none" xmlns="http://www.w3.org/2000/svg">
<path d="M11.1374 4.5625C10.5172 4.5625 9.98536 4.33937 9.54202 3.89312C9.09869 3.44685 8.87702 2.9104 8.87702 2.28375C8.87702 1.65708 9.09786 1.11979 9.53955 0.671875C9.98126 0.223958 10.5122 0 11.1325 0C11.7527 0 12.2845 0.223125 12.7279 0.669375C13.1712 1.11565 13.3929 1.6521 13.3929 2.27875C13.3929 2.90542 13.172 3.44271 12.7303 3.89062C12.2886 4.33854 11.7577 4.5625 11.1374 4.5625ZM19.1725 20.3125C20.1239 20.3125 20.9296 19.9806 21.5894 19.3169C22.2493 18.6532 22.5792 17.8407 22.5792 16.8794C22.5792 15.9181 22.2507 15.1042 21.5938 14.4375C20.9368 13.7708 20.1326 13.4375 19.1812 13.4375C18.2298 13.4375 17.4241 13.7694 16.7643 14.4331C16.1044 15.0968 15.7745 15.9093 15.7745 16.8706C15.7745 17.8319 16.103 18.6458 16.7599 19.3125C17.4168 19.9792 18.221 20.3125 19.1725 20.3125ZM25.4866 24.5625L22.1771 21.2188C21.7234 21.5312 21.2458 21.7708 20.7443 21.9375C20.2427 22.1042 19.7202 22.1875 19.1768 22.1875C17.7162 22.1875 16.4747 21.6706 15.4523 20.6369C14.4299 19.6033 13.9187 18.348 13.9187 16.8713C13.9187 15.3946 14.4302 14.1406 15.4534 13.1094C16.4765 12.0781 17.7189 11.5625 19.1805 11.5625C20.6421 11.5625 21.8832 12.079 22.904 13.112C23.9247 14.145 24.435 15.3993 24.435 16.875C24.435 17.424 24.3525 17.9519 24.1876 18.4586C24.0226 18.9654 23.7855 19.4479 23.4762 19.9062L26.7857 23.25L25.4866 24.5625ZM12.5887 25V19.5938C12.7949 20.1146 13.0526 20.599 13.3619 21.0469C13.6712 21.4948 14.0321 21.8958 14.4445 22.25V25H12.5887ZM7.82539 25V8.34375C6.50501 8.24827 5.19545 8.10981 3.8967 7.92838C2.59798 7.74696 1.29908 7.5 0 7.1875L0.463956 5.3125C2.2222 5.72917 3.98569 6.02604 5.75441 6.20312C7.52314 6.38021 9.31803 6.46875 11.1391 6.46875C12.9601 6.46875 14.755 6.38021 16.5238 6.20312C18.2925 6.02604 20.0532 5.72917 21.8059 5.3125L22.2699 7.1875C20.9708 7.5 19.6719 7.74696 18.3732 7.92838C17.0744 8.10981 15.7649 8.24827 14.4445 8.34375V11.5C13.7228 12.1667 13.1454 12.9635 12.7124 13.8906C12.2794 14.8177 12.0629 15.8125 12.0629 16.875H9.68121V25H7.82539Z" fill="#EBEBF9"/>
</svg>
