<svg width="21" height="25" viewBox="0 0 21 25" fill="none" xmlns="http://www.w3.org/2000/svg">
<path d="M7 1.78784V0H14V1.78784H7ZM9.625 15.1073H11.375V8.25387H9.625V15.1073ZM10.5 25C9.06111 25 7.70486 24.7169 6.43125 24.1508C5.15764 23.5846 4.04444 22.8149 3.09167 21.8415C2.13889 20.8681 1.38542 19.7308 0.83125 18.4297C0.277083 17.1285 0 15.7429 0 14.2729C0 12.8029 0.277083 11.4174 0.83125 10.1162C1.38542 8.81506 2.13889 7.67779 3.09167 6.70441C4.04444 5.73103 5.15764 4.96126 6.43125 4.39511C7.70486 3.82896 9.06111 3.54589 10.5 3.54589C11.8028 3.54589 13.0278 3.76937 14.175 4.21633C15.3222 4.66329 16.3431 5.28407 17.2375 6.07866L18.725 4.559L19.95 5.81049L18.4625 7.33015C19.1625 8.12475 19.7604 9.0882 20.2563 10.2205C20.7521 11.3528 21 12.7036 21 14.2729C21 15.7429 20.7229 17.1285 20.1688 18.4297C19.6146 19.7308 18.8611 20.8681 17.9083 21.8415C16.9556 22.8149 15.8424 23.5846 14.5688 24.1508C13.2951 24.7169 11.9389 25 10.5 25ZM10.5 23.2122C12.9306 23.2122 14.9965 22.3431 16.6979 20.6049C18.3993 18.8667 19.25 16.7561 19.25 14.2729C19.25 11.7898 18.3993 9.67918 16.6979 7.941C14.9965 6.20282 12.9306 5.33373 10.5 5.33373C8.06944 5.33373 6.00347 6.20282 4.30208 7.941C2.60069 9.67918 1.75 11.7898 1.75 14.2729C1.75 16.7561 2.60069 18.8667 4.30208 20.6049C6.00347 22.3431 8.06944 23.2122 10.5 23.2122Z" fill="#EBEBF9"/>
</svg>
