<svg width="18" height="20" viewBox="0.019927978515625 0.247344970703125 17.96014404296875 19.50531005859375" fill="none" xmlns="http://www.w3.org/2000/svg">
<path d="M8.99536 0C13.0542 0 16.3684 3.20184 16.5078 7.26515L16.512 7.51664V11.6227L17.8951 14.7857C17.9643 14.944 18 15.1149 18 15.2877C18 15.9795 17.4392 16.5404 16.7472 16.5404L12.002 16.5419C12.002 18.2024 10.6559 19.5486 8.99536 19.5486C7.39412 19.5486 6.08527 18.2968 5.99382 16.7185L5.98826 16.5396L1.2531 16.5404C1.08138 16.5404 0.911492 16.5051 0.753984 16.4367C0.119378 16.161 -0.171616 15.4232 0.104035 14.7886L1.47873 11.6236V7.51654C1.47933 3.35253 4.83826 0 8.99536 0ZM10.4983 16.5396L7.49203 16.5419C7.49203 17.3722 8.16512 18.0453 8.99536 18.0453C9.77679 18.0453 10.419 17.449 10.4918 16.6867L10.4983 16.5396ZM8.99536 1.50333C5.66784 1.50333 2.98254 4.18352 2.98206 7.51664V11.936L1.63509 15.0371H16.3642L15.0087 11.937L15.0088 7.52953L15.0051 7.30383C14.8937 4.06318 12.2442 1.50333 8.99536 1.50333Z" fill="#20276A"/>
</svg>
