<svg width="16" height="20" viewBox="0.000244140625 0.00177001953125 15.99951171875 19.9964599609375" fill="none" xmlns="http://www.w3.org/2000/svg">
<path d="M13.751 11.9957C14.9931 11.9957 16 13.0025 16 14.2447V14.8201C16 15.7144 15.6804 16.5792 15.0989 17.2586C13.5294 19.0922 11.1421 19.997 7.99673 19.997C4.85074 19.997 2.46466 19.0919 0.898308 17.2575C0.31852 16.5786 0 15.7151 0 14.8223V14.2447C0 13.0025 1.00688 11.9957 2.24894 11.9957H13.751ZM13.751 13.4957H2.24894C1.83534 13.4957 1.50005 13.831 1.50005 14.2447V14.8223C1.50005 15.358 1.69116 15.8761 2.03902 16.2834C3.29237 17.7512 5.25831 18.497 7.99673 18.497C10.7351 18.497 12.7028 17.7512 13.9592 16.2832C14.3082 15.8755 14.4999 15.3566 14.4999 14.8201V14.2447C14.4999 13.831 14.1646 13.4957 13.751 13.4957ZM7.99673 0C10.7582 0 12.9969 2.23865 12.9969 5.00015C12.9969 7.76167 10.7582 10.0003 7.99673 10.0003C5.23519 10.0003 2.99654 7.76167 2.99654 5.00015C2.99654 2.23865 5.23519 0 7.99673 0ZM7.99673 1.50005C6.06367 1.50005 4.49659 3.0671 4.49659 5.00015C4.49659 6.93321 6.06367 8.50028 7.99673 8.50028C9.92979 8.50028 11.4968 6.93321 11.4968 5.00015C11.4968 3.0671 9.92979 1.50005 7.99673 1.50005Z" fill="#20276A"/>
</svg>
